{"title":"The Girlfriend Experience S01E12 HDTV [mp4remuxer] mp4","uid":15010411,"size":144420804,"categoryP":"video","categoryS":"tv_shows","magnet":"?xt=urn:btih:df22ac467f6bca2f326560b1f60f79298b167c9f&amp;dn=The+Girlfriend+Experience+S01E12+HDTV+%5Bmp4remuxer%5D+mp4&amp;tr=udp%3A%2F%2Ftracker.leechers-paradise.org%3A6969&amp;tr=udp%3A%2F%2Fzer0day.ch%3A1337&amp;tr=udp%3A%2F%2Fopen.demonii.com%3A1337&amp;tr=udp%3A%2F%2Ftracker.coppersurfer.tk%3A6969&amp;tr=udp%3A%2F%2Fexodus.desync.com%3A6969","seeders":12,"leechers":0,"uploader":"k3nd00d","files":1,"time":1466422062,"description":"MKV to MP4 remux\r\n\r\n\r\nFormat : MPEG-4\r\nFormat profile : Base Mediaa\r\nCodec ID : isom (isom/iso2/avc1/mp41)\r\nFile size : 138 MiB\r\nDuration : 26mn 18s\r\nOverall bit rate : 732 Kbps\r\nWriting application : Lavf56.32.100\r\n\r\nVideo\r\nID : 1\r\nFormat : AVC\r\nFormat/Info : Advanced Video Codec\r\nFormat profile :   \r\nFormat settings, CABAC : Yes\r\nFormat settings, ReFrames : 5 frames\r\nCodec ID : avc1\r\nCodec ID/Info : Advanced Video Coding\r\nDuration : 26mn 18s\r\nBit rate : 605 Kbps\r\nWidth : 720 pixels\r\nHeight : 404 pixels\r\nDisplay aspect ratio : 16:9\r\nFrame rate mode : Variable\r\nFrame rate : 23.976 (24000/1001) fps\r\nMinimum frame rate : 23.564 fps\r\nMaximum frame rate : 24.390 fps\r\nColor space : YUV\r\nChroma subsampling : 4:2:0\r\nBit depth : 8 bits\r\nScan type : Progressive\r\nBits/(Pixel*Frame) : 0.087\r\nStream size : 114 MiB (83%)\r\nWriting library : x264 core 148 r2694 3b70645\r\nEncoding settings : cabac=1 / ref=5 / deblock=1:0:0 / analyse=0x3:0x113 / me=umh / subme=8 / psy=1 / psy_rd=1.00:0.00 / mixed_ref=1 / me_range=16 / chroma_me=1 / trellis=1 / 8x8dct=1 / cqm=0 / deadzone=21,11 / fast_pskip=1 / chroma_qp_offset=-2 / threads=13 / lookahead_threads=2 / sliced_threads=0 / nr=0 / decimate=1 / interlaced=0 / bluray_compat=0 / constrained_intra=0 / bframes=3 / b_pyramid=2 / b_adapt=2 / b_bias=0 / direct=3 / weightb=1 / open_gop=0 / weightp=2 / keyint=250 / keyint_min=23 / scenecut=40 / intra_refresh=0 / rc_lookahead=50 / rc=crf / mbtree=1 / crf=19.0 / qcomp=0.60 / qpmin=0 / qpmax=69 / qpstep=4 / ip_ratio=1.40 / aq=1:1.00\r\nLanguage : English\r\nColor range : Limited\r\nMatrix coefficients : BT.709\r\n\r\nAudio\r\nID : 2\r\nFormat : AAC\r\nFormat/Info : Advanced Audio Codec\r\nFormat profile : LC\r\nCodec ID : 40\r\nDuration : 26mn 18s\r\nBit rate mode : Constant\r\nBit rate : 120 Kbps\r\nChannel(s) : 2 channels\r\nChannel positions : Front: L R\r\nSampling rate : 48.0 KHz\r\nFrame rate : 46.875 fps (1024 spf)\r\nCompression mode : Lossy\r\nStream size : 22.5 MiB (16%)\r\nLanguage : English\r\nDefault : Yes\r\nAlternate group : 1","torrent":{"xt":"urn:btih:df22ac467f6bca2f326560b1f60f79298b167c9f","amp;dn":"The+Girlfriend+Experience+S01E12+HDTV+%5Bmp4remuxer%5D+mp4","amp;tr":["udp%3A%2F%2Ftracker.leechers-paradise.org%3A6969","udp%3A%2F%2Fzer0day.ch%3A1337","udp%3A%2F%2Fopen.demonii.com%3A1337","udp%3A%2F%2Ftracker.coppersurfer.tk%3A6969","udp%3A%2F%2Fexodus.desync.com%3A6969"],"infoHash":"df22ac467f6bca2f326560b1f60f79298b167c9f","infoHashBuffer":{"type":"Buffer","data":[223,34,172,70,127,107,202,47,50,101,96,177,246,15,121,41,139,22,124,159]},"announce":[],"urlList":[]}}